<?xml version="1.0"?>
<svg xmlns="http://www.w3.org/2000/svg" height="512px" viewBox="0 -68 512 512" width="512px"><path d="m256 300c24.8125 0 45-20.1875 45-45s-20.1875-45-45-45-45 20.1875-45 45 20.1875 45 45 45zm-15-60h30v30h-30zm0 0" fill="#FFFFFF"/><path d="m256 375c66.273438 0 120-53.726562 120-120s-53.726562-120-120-120-120 53.726562-120 120 53.726562 120 120 120zm0-195c41.351562 0 75 33.648438 75 75s-33.648438 75-75 75-75-33.648438-75-75 33.648438-75 75-75zm0 0" fill="#FFFFFF"/><path d="m241 0h30v75h-30zm0 0" fill="#FFFFFF"/><path d="m404.199219 34.160156-25.988281-15-37.5 64.949219 25.988281 15zm0 0" fill="#FFFFFF"/><path d="m443.5 143.335938 65.949219-37.5-15-25.988282-65.949219 37.5zm0 0" fill="#FFFFFF"/><path d="m107.800781 34.160156 37.5 64.949219 25.988281-15-37.5-64.949219zm0 0" fill="#FFFFFF"/><path d="m68.5 143.335938 15-25.988282-65.949219-37.5-15 25.988282zm0 0" fill="#FFFFFF"/><path d="m162.539062 371.378906c-34.183593-27.519531-56.539062-69.183594-56.539062-116.378906s22.347656-88.855469 56.53125-116.371094c-61.289062 23.535156-117.738281 66.984375-162.53125 116.371094 44.800781 49.390625 101.242188 92.84375 162.539062 116.378906zm0 0" fill="#FFFFFF"/><path d="m349.457031 138.621094c34.191407 27.515625 56.542969 69.179687 56.542969 116.378906 0 47.195312-22.347656 88.855469-56.53125 116.371094 61.289062-23.535156 117.738281-66.984375 162.53125-116.371094-44.800781-49.390625-101.242188-92.847656-162.542969-116.378906zm0 0" fill="#FFFFFF"/></svg>
